<svg version="1.2" xmlns="http://www.w3.org/2000/svg" viewBox="412 0 1024 547" width="1024" height="547">
	<style>
		.s0 { fill: #ffffff } 
		.s1 { fill: none;stroke: #ffffff;stroke-miterlimit:10;stroke-width: 22 } 
	</style>
	<g id="Folder 6">
		<g id="Folder 7">
		</g>
	</g>
	<g id="Layer 1">
	</g>
	<g id="Pill">
	</g>
	<g id="Folder 4">
	</g>
	<g id="Main logo">
		<path id="Shape 6 copy 36" fill-rule="evenodd" class="s0" d="m558.62 387.89c-23.64 22.96-64.65 20.32-87.27-1.71l0.26 0.25c-22.62-22.02-28.18-64.68-4.53-87.64l69.86-67.84c1.91 21.7 13.54 45.8 30.8 62.61l-0.34-0.33c16.79 16.35 39.47 26.32 60.25 27.63z"/>
		<path id="Shape 6 copy 37" fill-rule="evenodd" class="s1" d="m684.3 175.01l-0.05-0.04c18.52 18.02 22.14 52.04 2.79 70.83l-57.39 55.72c-17.01-1.07-35.57-9.24-49.32-22.62l0.29 0.27c-14.14-13.76-23.65-33.49-25.21-51.25l56.69-55.05c19.36-18.79 53.68-15.89 72.2 2.14z"/>
		<path id="pill" class="s0" aria-label="pill"  d="m827.6 325.5v183.9h-69.4v-233q0-36.8 16.8-65.2 17.4-29 46.9-45.5 29.9-16.6 67.6-16.6 37.4 0 66.9 17.6 29.9 17 46.9 46 17.4 28.6 17.4 63.7 0 37.7-16.4 66.8-15.9 28.9-45 45.5-28.3 16-66.2 16-26 0-48.7-11.6-22.6-12.4-36.7-31.3-13.6-19.7-13.6-42.1zm61.9 13.9q18.1 0 31.7-8.4 14-8.6 22-22.5 8-14.7 8-31.7 0-17.3-8-30.9-8-14.5-22-22.5-13.6-9-31.7-9-17.8 0-31.9 9-13.9 8-22 22.5-8 13.6-8 30.9 0 17 8 31.7 8.1 13.9 22 22.5 14.1 8.4 31.9 8.4zm162.4 58.6v-242.2h69.5v242.2zm34.7-278.2q-11.5 0-21.8-5.5-9.6-6-15.7-15.6-5.4-10.3-5.4-21.9 0-12 5.4-21.6 6.1-10 15.7-15.7 10.3-5.8 21.8-5.8 12 0 21.2 5.8 10 5.7 15.6 15.7 5.9 9.6 5.9 21.6 0 11.6-5.9 21.9-5.6 9.6-15.6 15.6-9.2 5.5-21.2 5.5zm87.3 278.2v-353.6h69.4v353.6zm123 0v-353.6h69.5v353.6z"/>
	</g>
	<g id="Texts">
		<g id="Folder 5">
		</g>
	</g>
</svg>